<?xml version="1.0" encoding="UTF-8" standalone="no"?>
<!-- Created with Inkscape (http://www.inkscape.org/) -->

<svg
   xmlns:dc="http://purl.org/dc/elements/1.1/"
   xmlns:cc="http://creativecommons.org/ns#"
   xmlns:rdf="http://www.w3.org/1999/02/22-rdf-syntax-ns#"
   xmlns:svg="http://www.w3.org/2000/svg"
   xmlns="http://www.w3.org/2000/svg"
   xmlns:sodipodi="http://sodipodi.sourceforge.net/DTD/sodipodi-0.dtd"
   xmlns:inkscape="http://www.inkscape.org/namespaces/inkscape"
   width="100"
   height="100"
   id="svg2993"
   version="1.1"
   inkscape:version="0.48.4 r9939"
   sodipodi:docname="back.svg"
   inkscape:export-filename="/home/jishnu/git/hamburger/icon.png"
   inkscape:export-xdpi="57.599998"
   inkscape:export-ydpi="57.599998">
  <title
     id="title3830">Back arrow</title>
  <defs
     id="defs2995" />
  <sodipodi:namedview
     id="base"
     pagecolor="#ffffff"
     bordercolor="#666666"
     borderopacity="1.0"
     inkscape:pageopacity="0.0"
     inkscape:pageshadow="2"
     inkscape:zoom="4"
     inkscape:cx="72.972526"
     inkscape:cy="64.09929"
     inkscape:current-layer="layer1"
     showgrid="true"
     inkscape:grid-bbox="true"
     inkscape:document-units="px"
     inkscape:window-width="1317"
     inkscape:window-height="788"
     inkscape:window-x="0"
     inkscape:window-y="290"
     inkscape:window-maximized="0"
     showguides="true"
     inkscape:guide-bbox="true" />
  <metadata
     id="metadata2998">
    <rdf:RDF>
      <cc:Work
         rdf:about="">
        <dc:format>image/svg+xml</dc:format>
        <dc:type
           rdf:resource="http://purl.org/dc/dcmitype/StillImage" />
        <dc:title>Back arrow</dc:title>
        <dc:creator>
          <cc:Agent>
            <dc:title>Jishnu Mohan</dc:title>
          </cc:Agent>
        </dc:creator>
        <cc:license
           rdf:resource="http://creativecommons.org/licenses/by/3.0/" />
      </cc:Work>
      <cc:License
         rdf:about="http://creativecommons.org/licenses/by/3.0/">
        <cc:permits
           rdf:resource="http://creativecommons.org/ns#Reproduction" />
        <cc:permits
           rdf:resource="http://creativecommons.org/ns#Distribution" />
        <cc:requires
           rdf:resource="http://creativecommons.org/ns#Notice" />
        <cc:requires
           rdf:resource="http://creativecommons.org/ns#Attribution" />
        <cc:permits
           rdf:resource="http://creativecommons.org/ns#DerivativeWorks" />
      </cc:License>
    </rdf:RDF>
  </metadata>
  <g
     id="layer1"
     inkscape:label="Layer 1"
     inkscape:groupmode="layer"
     transform="translate(0,52)">
    <path
       sodipodi:nodetypes="ccssssssscccccccssscscccc"
       inkscape:connector-curvature="0"
       id="path3839"
       d="m 46.139221,21.332461 0.04688,-5.526406 31.899553,0.08005 c 2.38853,0.0064 3.77402,-0.922118 5.277187,-1.576467 1.381981,-0.601602 3.356945,-2.440584 4.388818,-4.086624 1.344293,-2.1444207 1.754953,-3.9843989 1.448656,-6.4907163 -0.235116,-1.9238391 -1.181991,-4.34519535 -2.104174,-5.3807965 -0.922182,-1.0356014 -3.00001,-2.4430147 -4.617382,-3.1275759 -2.290602,-0.969502 -3.640131,-1.201174 -4.170433,-1.2004429 L 14.301157,-6.1117502 26.843866,7.6427063 19.849211,7.6871193 5.0000001,-8.8473636 19.634647,-25.34627 l 6.381209,0.03509 -11.781009,13.709942 66.011879,0.07265 c 1.550633,0.0018 3.51645,0.571179 7.00043,2.3901756 2.15918,1.127316 4.490914,3.3716945 5.696575,5.4831434 1.31886,2.3097011 2.046464,5.1210824 2.056179,7.9448098 0.0082,2.4035905 -0.545902,5.7126762 -1.231496,7.3535252 -0.685585,1.64084 -2.548912,4.079249 -4.140733,5.41857 -1.59182,1.339441 -4.423572,2.860099 -6.292803,3.379262 -1.869221,0.519071 -2.258497,1.008624 -6.2454,0.886441 z"
       style="fill:#000000;fill-opacity:1;stroke:none" />
  </g>
</svg>
