<?xml version="1.0" encoding="UTF-8" standalone="no"?>
<!-- Created with Inkscape (http://www.inkscape.org/) -->

<svg
   xmlns:dc="http://purl.org/dc/elements/1.1/"
   xmlns:cc="http://creativecommons.org/ns#"
   xmlns:rdf="http://www.w3.org/1999/02/22-rdf-syntax-ns#"
   xmlns:svg="http://www.w3.org/2000/svg"
   xmlns="http://www.w3.org/2000/svg"
   xmlns:sodipodi="http://sodipodi.sourceforge.net/DTD/sodipodi-0.dtd"
   xmlns:inkscape="http://www.inkscape.org/namespaces/inkscape"
   width="100"
   height="100"
   id="svg2993"
   version="1.1"
   inkscape:version="0.48.5 r10040"
   sodipodi:docname="voice_inactive.svg"
   inkscape:export-filename="/home/jishnu/git/hamburger/icon.png"
   inkscape:export-xdpi="57.599998"
   inkscape:export-ydpi="57.599998">
  <title
     id="title3759">Voice icon</title>
  <defs
     id="defs2995" />
  <sodipodi:namedview
     id="base"
     pagecolor="#ffffff"
     bordercolor="#666666"
     borderopacity="1.0"
     inkscape:pageopacity="0.0"
     inkscape:pageshadow="2"
     inkscape:zoom="4"
     inkscape:cx="44.1375"
     inkscape:cy="50.179778"
     inkscape:current-layer="layer1"
     showgrid="false"
     inkscape:grid-bbox="true"
     inkscape:document-units="px"
     inkscape:window-width="958"
     inkscape:window-height="1060"
     inkscape:window-x="0"
     inkscape:window-y="18"
     inkscape:window-maximized="0"
     showguides="true"
     inkscape:guide-bbox="true">
    <inkscape:grid
       type="xygrid"
       id="grid3013"
       empspacing="5"
       visible="true"
       enabled="true"
       snapvisiblegridlinesonly="true" />
  </sodipodi:namedview>
  <metadata
     id="metadata2998">
    <rdf:RDF>
      <cc:Work
         rdf:about="">
        <dc:format>image/svg+xml</dc:format>
        <dc:type
           rdf:resource="http://purl.org/dc/dcmitype/StillImage" />
        <dc:title>Voice icon</dc:title>
        <dc:creator>
          <cc:Agent>
            <dc:title>Jishnu Mohan</dc:title>
          </cc:Agent>
        </dc:creator>
        <cc:license
           rdf:resource="http://creativecommons.org/licenses/by/3.0/" />
        <dc:date>30 June 2014</dc:date>
      </cc:Work>
      <cc:License
         rdf:about="http://creativecommons.org/licenses/by/3.0/">
        <cc:permits
           rdf:resource="http://creativecommons.org/ns#Reproduction" />
        <cc:permits
           rdf:resource="http://creativecommons.org/ns#Distribution" />
        <cc:requires
           rdf:resource="http://creativecommons.org/ns#Notice" />
        <cc:requires
           rdf:resource="http://creativecommons.org/ns#Attribution" />
        <cc:permits
           rdf:resource="http://creativecommons.org/ns#DerivativeWorks" />
      </cc:License>
    </rdf:RDF>
  </metadata>
  <g
     id="layer1"
     inkscape:label="Layer 1"
     inkscape:groupmode="layer"
     transform="translate(0,52)">
    <path
       style="opacity:1;fill:#000000;fill-opacity:1;fill-rule:nonzero;stroke:none"
       d="M 49.96875 5 C 42.146803 5 35.84375 11.303053 35.84375 19.125 L 35.84375 50.375 C 35.84375 58.196947 42.146803 64.5 49.96875 64.5 L 50 64.5 C 57.821947 64.5 64.125 58.196947 64.125 50.375 L 64.125 19.125 C 64.125 11.303053 57.821947 5 50 5 L 49.96875 5 z M 50 11.5 C 54.435461 11.5 58 16.417676 58 22.53125 L 58 46.96875 C 58 53.082324 54.435461 58 50 58 C 45.564539 58 42 53.082324 42 46.96875 L 42 22.53125 C 42 16.417676 45.564539 11.5 50 11.5 z M 16.65625 50.125 C 16.65625 66.256198 29.103988 79.612177 45.28125 81.8125 L 45.28125 95 L 54.71875 95 L 54.71875 81.8125 C 70.896012 79.612177 83.34375 66.256198 83.34375 50.125 L 74.90625 50.125 C 74.90625 63.332116 63.763206 74.0625 50 74.0625 C 36.236796 74.0625 25.09375 63.332116 25.09375 50.125 L 16.65625 50.125 z "
       transform="translate(0,-52)"
       id="rect2985" />
  </g>
</svg>
